Coordinates
version=1
nRows=27
nColumns=12
inDegrees=yes

Units are S.I. units (second, meters, Newtons, ...)
Angles are in degrees

endheader
time	SC_y	SC_z	SC_x	AC_y	AC_z	AC_x	GH_y	GH_z	GH_yy	EL_x	PS_y
       0.0              -26.47          7.101          32.48          49.53         -18.44          12.15         -60.94           74.4          89.54          26.12          102.3
   0.02757              -26.47          7.103          32.49          49.53         -18.44          12.15         -60.92          74.39          89.54          26.13          102.3
   0.05514              -26.47          7.105           32.5          49.53         -18.44          12.15         -60.89          74.38          89.53          26.15          102.3
   0.08272              -26.47          7.108          32.51          49.54         -18.44          12.15         -60.86          74.37          89.52          26.16          102.3
    0.1103              -26.47           7.11          32.52          49.54         -18.43          12.15         -60.82          74.36          89.51          26.17          102.3
    0.1379              -26.47          7.113          32.53          49.54         -18.43          12.15         -60.79          74.35           89.5          26.18          102.3
    0.1654              -26.47          7.116          32.54          49.54         -18.43          12.15         -60.75          74.34          89.49           26.2          102.2
     0.193              -26.47          7.119          32.55          49.55         -18.43          12.15         -60.71          74.32          89.48          26.21          102.2
    0.2206              -26.48          7.122          32.56          49.55         -18.43          12.15         -60.67          74.31          89.46          26.23          102.2
    0.2481              -26.48          7.126          32.57          49.55         -18.43          12.15         -60.62          74.29          89.45          26.25          102.2
    0.2757              -26.48           7.13          32.59          49.56         -18.43          12.15         -60.57          74.28          89.44          26.27          102.2
    0.3033              -26.48          7.134           32.6          49.56         -18.42          12.15         -60.52          74.26          89.42          26.29          102.1
    0.3309              -26.48          7.138          32.62          49.56         -18.42          12.14         -60.47          74.24          89.41          26.31          102.1
    0.3584              -26.48          7.143          32.63          49.57         -18.42          12.14          -60.4          74.22          89.39          26.33          102.1
     0.386              -26.48          7.148          32.65          49.57         -18.42          12.14         -60.34           74.2          89.37          26.36          102.1
    0.4136              -26.48          7.154          32.67          49.58         -18.42          12.14         -60.26          74.17          89.35          26.38          102.0
    0.4411              -26.48           7.16          32.69          49.58         -18.41          12.14         -60.19          74.14          89.33          26.41          102.0
    0.4687              -26.49          7.167          32.72          49.59         -18.41          12.14          -60.1          74.12           89.3          26.45          102.0
    0.4963              -26.49          7.174          32.74          49.59         -18.41          12.13         -60.01          74.08          89.27          26.48          101.9
    0.5239              -26.49          7.182          32.77           49.6          -18.4          12.13          -59.9          74.05          89.24          26.52          101.9
    0.5514              -26.49          7.191           32.8          49.61          -18.4          12.13         -59.79          74.01          89.21          26.56          101.8
     0.579              -26.49            7.2          32.84          49.62          -18.4          12.13         -59.67          73.97          89.18          26.61          101.8
    0.6066               -26.5          7.211          32.88          49.63         -18.39          12.13         -59.53          73.92          89.14          26.66          101.7
    0.6341               -26.5          7.223          32.92          49.64         -18.39          12.12         -59.38          73.87          89.09          26.72          101.7
    0.6617               -26.5          7.236          32.97          49.65         -18.38          12.12         -59.21          73.81          89.05          26.79          101.6
    0.6893              -26.51           7.25          33.02          49.66         -18.38          12.11         -59.02          73.75          88.99          26.86          101.5
    0.7169              -26.51          7.267          33.08          49.68         -18.37          12.11         -58.81          73.68          88.93          26.94          101.4
